<svg width="36" height="36" viewBox="0 0 36 36" fill="none" xmlns="http://www.w3.org/2000/svg">
<path d="M18 1.20008L18.78 0.288079C18.5626 0.102164 18.286 0 18 0C17.714 0 17.4374 0.102164 17.22 0.288079L18 1.20008ZM1.2 15.6001L0.42 14.6881L0 15.0481V15.6001H1.2ZM13.2 34.8001V36.0001C13.5183 36.0001 13.8235 35.8736 14.0485 35.6486C14.2736 35.4236 14.4 35.1183 14.4 34.8001H13.2ZM22.8 34.8001H21.6C21.6 35.1183 21.7264 35.4236 21.9515 35.6486C22.1765 35.8736 22.4817 36.0001 22.8 36.0001V34.8001ZM34.8 15.6001H36V15.0481L35.58 14.6881L34.8 15.6001ZM3.6 36.0001H13.2V33.6001H3.6V36.0001ZM35.58 14.6881L18.78 0.288079L17.22 2.11208L34.02 16.5121L35.58 14.6881ZM17.22 0.288079L0.42 14.6881L1.98 16.5121L18.78 2.11208L17.22 0.288079ZM14.4 34.8001V27.6001H12V34.8001H14.4ZM21.6 27.6001V34.8001H24V27.6001H21.6ZM22.8 36.0001H32.4V33.6001H22.8V36.0001ZM36 32.4001V15.6001H33.6V32.4001H36ZM0 15.6001V32.4001H2.4V15.6001H0ZM18 24.0001C18.9548 24.0001 19.8705 24.3794 20.5456 25.0545C21.2207 25.7296 21.6 26.6453 21.6 27.6001H24C24 26.0088 23.3679 24.4827 22.2426 23.3574C21.1174 22.2322 19.5913 21.6001 18 21.6001V24.0001ZM18 21.6001C16.4087 21.6001 14.8826 22.2322 13.7574 23.3574C12.6321 24.4827 12 26.0088 12 27.6001H14.4C14.4 26.6453 14.7793 25.7296 15.4544 25.0545C16.1295 24.3794 17.0452 24.0001 18 24.0001V21.6001ZM32.4 36.0001C33.3548 36.0001 34.2705 35.6208 34.9456 34.9457C35.6207 34.2705 36 33.3549 36 32.4001H33.6C33.6 32.7183 33.4736 33.0236 33.2485 33.2486C33.0235 33.4736 32.7183 33.6001 32.4 33.6001V36.0001ZM3.6 33.6001C3.28174 33.6001 2.97652 33.4736 2.75147 33.2486C2.52643 33.0236 2.4 32.7183 2.4 32.4001H0C0 33.3549 0.379285 34.2705 1.05442 34.9457C1.72955 35.6208 2.64522 36.0001 3.6 36.0001V33.6001Z" fill="#1B434B" fill-opacity="0.68"/>
</svg>
