<svg width="36" height="36" viewBox="0 0 36 36" fill="none" xmlns="http://www.w3.org/2000/svg">
<path d="M7.71429 4.5C7.71429 3.30653 8.12066 2.16193 8.84402 1.31802C9.56737 0.474106 10.5485 0 11.5714 0H24.4286C25.4515 0 26.4326 0.474106 27.156 1.31802C27.8793 2.16193 28.2857 3.30653 28.2857 4.5V6H30.8571C32.2211 6 33.5292 6.63214 34.4937 7.75736C35.4582 8.88258 36 10.4087 36 12V25.5C36 26.6935 35.5936 27.8381 34.8703 28.682C34.1469 29.5259 33.1658 30 32.1429 30H28.5429V31.5C28.5429 32.6935 28.1365 33.8381 27.4131 34.682C26.6898 35.5259 25.7087 36 24.6857 36H11.5714C10.5485 36 9.56737 35.5259 8.84402 34.682C8.12066 33.8381 7.71429 32.6935 7.71429 31.5V30H3.85714C2.83416 30 1.85309 29.5259 1.12973 28.682C0.406377 27.8381 0 26.6935 0 25.5V12C0 10.4087 0.541835 8.88258 1.50631 7.75736C2.47078 6.63214 3.77889 6 5.14286 6H7.71429V4.5ZM25.7143 6V4.5C25.7143 4.10218 25.5788 3.72064 25.3377 3.43934C25.0966 3.15804 24.7696 3 24.4286 3H11.5714C11.2304 3 10.9034 3.15804 10.6623 3.43934C10.4212 3.72064 10.2857 4.10218 10.2857 4.5V6H25.7143ZM7.71429 9H5.14286C4.46087 9 3.80682 9.31607 3.32458 9.87868C2.84235 10.4413 2.57143 11.2044 2.57143 12V25.5C2.57143 25.8978 2.70689 26.2794 2.94801 26.5607C3.18912 26.842 3.51615 27 3.85714 27H7.71429V25.5C7.71429 24.3065 8.12066 23.1619 8.84402 22.318C9.56737 21.4741 10.5485 21 11.5714 21H24.6857C25.7087 21 26.6898 21.4741 27.4131 22.318C28.1365 23.1619 28.5429 24.3065 28.5429 25.5V27H32.1429C32.4838 27 32.8109 26.842 33.052 26.5607C33.2931 26.2794 33.4286 25.8978 33.4286 25.5V12C33.4286 11.2044 33.1577 10.4413 32.6754 9.87868C32.1932 9.31607 31.5391 9 30.8571 9H7.71429ZM11.5714 24C11.2304 24 10.9034 24.158 10.6623 24.4393C10.4212 24.7206 10.2857 25.1022 10.2857 25.5V31.5C10.2857 31.8978 10.4212 32.2794 10.6623 32.5607C10.9034 32.842 11.2304 33 11.5714 33H24.6857C25.0267 33 25.3537 32.842 25.5949 32.5607C25.836 32.2794 25.9714 31.8978 25.9714 31.5V25.5C25.9714 25.1022 25.836 24.7206 25.5949 24.4393C25.3537 24.158 25.0267 24 24.6857 24H11.5714Z" fill="#1B434B" fill-opacity="0.68"/>
</svg>
