<svg width="36" height="36" viewBox="0 0 36 36" fill="none" xmlns="http://www.w3.org/2000/svg">
<path d="M31.0909 0H14.7273C13.4253 0 12.1767 0.568927 11.256 1.58162C10.3354 2.59432 9.81818 3.96783 9.81818 5.4V18C9.81818 19.4322 10.3354 20.8057 11.256 21.8184C12.1767 22.8311 13.4253 23.4 14.7273 23.4H31.0909C32.3929 23.4 33.6415 22.8311 34.5622 21.8184C35.4828 20.8057 36 19.4322 36 18V5.4C36 3.96783 35.4828 2.59432 34.5622 1.58162C33.6415 0.568927 32.3929 0 31.0909 0ZM32.7273 18C32.7273 18.4774 32.5549 18.9352 32.248 19.2728C31.9411 19.6104 31.5249 19.8 31.0909 19.8H14.7273C14.2933 19.8 13.8771 19.6104 13.5702 19.2728C13.2633 18.9352 13.0909 18.4774 13.0909 18V5.4C13.0909 4.92261 13.2633 4.46477 13.5702 4.12721C13.8771 3.78964 14.2933 3.6 14.7273 3.6H31.0909C31.5249 3.6 31.9411 3.78964 32.248 4.12721C32.5549 4.46477 32.7273 4.92261 32.7273 5.4V18ZM27 10.8C26.3942 10.8023 25.8109 11.0525 25.3636 11.502C25.0118 11.1502 24.5746 10.9184 24.1052 10.8347C23.6358 10.7511 23.1544 10.8192 22.7196 11.0309C22.2848 11.2425 21.9151 11.5885 21.6557 12.0268C21.3963 12.4652 21.2581 12.9769 21.2581 13.5C21.2581 14.0231 21.3963 14.5348 21.6557 14.9732C21.9151 15.4115 22.2848 15.7575 22.7196 15.9691C23.1544 16.1808 23.6358 16.2489 24.1052 16.1653C24.5746 16.0816 25.0118 15.8498 25.3636 15.498C25.6591 15.7934 26.0157 16.0051 26.4024 16.1146C26.7891 16.2242 27.1943 16.2283 27.5827 16.1266C27.9712 16.0249 28.3312 15.8205 28.6316 15.5312C28.9321 15.2418 29.1637 14.8761 29.3066 14.466C29.4495 14.0558 29.4992 13.6135 29.4515 13.1774C29.4038 12.7413 29.2601 12.3246 29.0328 11.9634C28.8056 11.6022 28.5016 11.3075 28.1474 11.1047C27.7932 10.902 27.3993 10.7974 27 10.8ZM24.5455 27C24.1115 27 23.6952 27.1896 23.3884 27.5272C23.0815 27.8648 22.9091 28.3226 22.9091 28.8V30.6C22.9091 31.0774 22.7367 31.5352 22.4298 31.8728C22.1229 32.2104 21.7067 32.4 21.2727 32.4H4.90909C4.4751 32.4 4.05888 32.2104 3.75201 31.8728C3.44513 31.5352 3.27273 31.0774 3.27273 30.6V23.4H4.90909C5.34308 23.4 5.7593 23.2104 6.06617 22.8728C6.37305 22.5352 6.54545 22.0774 6.54545 21.6C6.54545 21.1226 6.37305 20.6648 6.06617 20.3272C5.7593 19.9896 5.34308 19.8 4.90909 19.8H3.27273V18C3.27273 17.5226 3.44513 17.0648 3.75201 16.7272C4.05888 16.3896 4.4751 16.2 4.90909 16.2C5.34308 16.2 5.7593 16.0104 6.06617 15.6728C6.37305 15.3352 6.54545 14.8774 6.54545 14.4C6.54545 13.9226 6.37305 13.4648 6.06617 13.1272C5.7593 12.7896 5.34308 12.6 4.90909 12.6C3.60712 12.6 2.35847 13.1689 1.43784 14.1816C0.517206 15.1943 0 16.5678 0 18V30.6C0 32.0322 0.517206 33.4057 1.43784 34.4184C2.35847 35.4311 3.60712 36 4.90909 36H21.2727C22.5747 36 23.8233 35.4311 24.744 34.4184C25.6646 33.4057 26.1818 32.0322 26.1818 30.6V28.8C26.1818 28.3226 26.0094 27.8648 25.7025 27.5272C25.3957 27.1896 24.9794 27 24.5455 27ZM8.18182 28.8H9.81818C10.2522 28.8 10.6684 28.6104 10.9753 28.2728C11.2821 27.9352 11.4545 27.4774 11.4545 27C11.4545 26.5226 11.2821 26.0648 10.9753 25.7272C10.6684 25.3896 10.2522 25.2 9.81818 25.2H8.18182C7.74783 25.2 7.33161 25.3896 7.02473 25.7272C6.71786 26.0648 6.54545 26.5226 6.54545 27C6.54545 27.4774 6.71786 27.9352 7.02473 28.2728C7.33161 28.6104 7.74783 28.8 8.18182 28.8Z" fill="#1B434B" fill-opacity="0.68"/>
</svg>
