<svg width="36" height="36" viewBox="0 0 36 36" fill="none" xmlns="http://www.w3.org/2000/svg">
<path d="M31.5 3.75H4.5C3.67157 3.75 3 4.42157 3 5.25V23.25C3 24.0784 3.67157 24.75 4.5 24.75H31.5C32.3284 24.75 33 24.0784 33 23.25V5.25C33 4.42157 32.3284 3.75 31.5 3.75Z" stroke="#1B434B" stroke-opacity="0.68" stroke-width="3" stroke-linecap="round" stroke-linejoin="round"/>
<path d="M25.5 20.25H10.5M23.25 16.5V11.25H12.75V16.5H23.25ZM13.5 29.25H22.5H13.5ZM12.75 24.75H23.25H12.75ZM24 20.25L22.5 29.25L23.25 32.25L24 20.25ZM12 20.25L13.5 29.25L12.75 32.25L12 20.25ZM18 20.25V32.25V20.25Z" stroke="#1B434B" stroke-opacity="0.68" stroke-width="3" stroke-linecap="round" stroke-linejoin="round"/>
</svg>
