<svg width="36" height="36" viewBox="0 0 36 36" fill="none" xmlns="http://www.w3.org/2000/svg">
<path fill-rule="evenodd" clip-rule="evenodd" d="M16.194 3.36595C18.9795 2.73895 21 5.13295 21 7.49995V28.5C21 30.867 18.9795 33.261 16.194 32.634C9.501 31.128 4.5 25.149 4.5 18C4.5 10.851 9.501 4.87195 16.194 3.36595ZM24.4395 12.4395C24.7208 12.1582 25.1023 12.0003 25.5 12.0003C25.8977 12.0003 26.2792 12.1582 26.5605 12.4395L31.0605 16.9395C31.3417 17.2207 31.4997 17.6022 31.4997 18C31.4997 18.3977 31.3417 18.7792 31.0605 19.0605L26.5605 23.5605C26.2776 23.8337 25.8987 23.9849 25.5054 23.9815C25.1121 23.978 24.7359 23.8203 24.4578 23.5422C24.1797 23.2641 24.0219 22.8878 24.0185 22.4946C24.0151 22.1013 24.1663 21.7224 24.4395 21.4395L26.379 19.5H13.5C13.1022 19.5 12.7206 19.3419 12.4393 19.0606C12.158 18.7793 12 18.3978 12 18C12 17.6021 12.158 17.2206 12.4393 16.9393C12.7206 16.658 13.1022 16.5 13.5 16.5H26.379L24.4395 14.5605C24.1583 14.2792 24.0003 13.8977 24.0003 13.5C24.0003 13.1022 24.1583 12.7207 24.4395 12.4395Z" fill="#1B434B" fill-opacity="0.68"/>
</svg>
