<svg width="36" height="36" viewBox="0 0 36 36" fill="none" xmlns="http://www.w3.org/2000/svg">
<path d="M25.2 21.375C22.8937 21.375 21.7848 22.5 18 22.5C14.2152 22.5 13.1143 21.375 10.8 21.375C4.8375 21.375 0 25.6078 0 30.825V32.625C0 34.4883 1.72768 36 3.85714 36H32.1429C34.2723 36 36 34.4883 36 32.625V30.825C36 25.6078 31.1625 21.375 25.2 21.375ZM32.1429 32.625H3.85714V30.825C3.85714 27.4781 6.975 24.75 10.8 24.75C11.9732 24.75 13.8777 25.875 18 25.875C22.1545 25.875 24.0187 24.75 25.2 24.75C29.025 24.75 32.1429 27.4781 32.1429 30.825V32.625ZM18 20.25C24.3884 20.25 29.5714 15.7148 29.5714 10.125C29.5714 4.53516 24.3884 0 18 0C11.6116 0 6.42857 4.53516 6.42857 10.125C6.42857 15.7148 11.6116 20.25 18 20.25ZM18 3.375C22.2509 3.375 25.7143 6.40547 25.7143 10.125C25.7143 13.8445 22.2509 16.875 18 16.875C13.7491 16.875 10.2857 13.8445 10.2857 10.125C10.2857 6.40547 13.7491 3.375 18 3.375Z" fill="#1B434B" fill-opacity="0.68"/>
</svg>
