<svg width="58" height="62" viewBox="0 0 58 62" fill="none" xmlns="http://www.w3.org/2000/svg">
<g filter="url(#filter0_d_262_1111)">
<line x1="4" y1="53.5" x2="54" y2="53.5" stroke="#1B434B" stroke-opacity="0.68" shape-rendering="crispEdges"/>
</g>
<g filter="url(#filter1_d_262_1111)">
<path d="M38.7317 22.6645C40.3698 22.6645 41 24.0186 41 24.8825C41 26.4869 36.1162 31 29.0021 31C19.0026 31 13 22.8323 13 15.4688C13 8.27175 18.8254 0 29.0021 0C36.257 0 41 4.58448 41 6.11749C41 6.96824 40.3051 8.33693 38.6653 8.33693C36.381 8.33693 35.3249 4.43679 29.0014 4.43679C21.8544 4.43679 17.6672 10.3019 17.6672 15.4681C17.6672 20.601 21.7822 26.5618 29.0014 26.5618C35.4131 26.5611 36.4342 22.6645 38.7317 22.6645Z" fill="#1B434B" fill-opacity="0.68" shape-rendering="crispEdges"/>
</g>
<defs>
<filter id="filter0_d_262_1111" x="0" y="53" width="58" height="9" filterUnits="userSpaceOnUse" color-interpolation-filters="sRGB">
<feFlood flood-opacity="0" result="BackgroundImageFix"/>
<feColorMatrix in="SourceAlpha" type="matrix" values="0 0 0 0 0 0 0 0 0 0 0 0 0 0 0 0 0 0 127 0" result="hardAlpha"/>
<feOffset dy="4"/>
<feGaussianBlur stdDeviation="2"/>
<feComposite in2="hardAlpha" operator="out"/>
<feColorMatrix type="matrix" values="0 0 0 0 0 0 0 0 0 0 0 0 0 0 0 0 0 0 0.25 0"/>
<feBlend mode="normal" in2="BackgroundImageFix" result="effect1_dropShadow_262_1111"/>
<feBlend mode="normal" in="SourceGraphic" in2="effect1_dropShadow_262_1111" result="shape"/>
</filter>
<filter id="filter1_d_262_1111" x="13" y="0" width="38" height="39" filterUnits="userSpaceOnUse" color-interpolation-filters="sRGB">
<feFlood flood-opacity="0" result="BackgroundImageFix"/>
<feColorMatrix in="SourceAlpha" type="matrix" values="0 0 0 0 0 0 0 0 0 0 0 0 0 0 0 0 0 0 127 0" result="hardAlpha"/>
<feOffset dx="6" dy="4"/>
<feGaussianBlur stdDeviation="2"/>
<feComposite in2="hardAlpha" operator="out"/>
<feColorMatrix type="matrix" values="0 0 0 0 0 0 0 0 0 0 0 0 0 0 0 0 0 0 0.25 0"/>
<feBlend mode="normal" in2="BackgroundImageFix" result="effect1_dropShadow_262_1111"/>
<feBlend mode="normal" in="SourceGraphic" in2="effect1_dropShadow_262_1111" result="shape"/>
</filter>
</defs>
</svg>
